<svg id="Group_686" data-name="Group 686" xmlns="http://www.w3.org/2000/svg" width="27.592" height="27.592" viewBox="0 0 27.592 27.592">
  <path id="Path_251" data-name="Path 251" d="M926.854,296.98a3.065,3.065,0,0,1,3.066,3.066v21.46a3.065,3.065,0,0,1-3.066,3.066h-21.46a3.066,3.066,0,0,1-3.066-3.066v-21.46a3.066,3.066,0,0,1,3.066-3.066h21.46" transform="translate(-902.328 -296.98)" fill="#a3a3a3"/>
  <path id="Path_252" data-name="Path 252" d="M914.079,309.6v6.706H911.09V309.6h-2.433v-2.778h2.433v-2.118a3.378,3.378,0,0,1,3.622-3.726,14.97,14.97,0,0,1,2.135.182v2.367h-1.206a1.385,1.385,0,0,0-1.562,1.495v1.8h2.664l-.432,2.778Z" transform="translate(-898.955 -294.848)" fill="#fff"/>
</svg>
