<svg xmlns="http://www.w3.org/2000/svg" width="116.346" height="61.001" viewBox="0 0 116.346 61.001">
  <g id="Group_663" data-name="Group 663" transform="translate(-35.375 -113.261)">
    <g id="Group_649" data-name="Group 649" transform="translate(146.376 146.79)">
      <path id="Path_213" data-name="Path 213" d="M354.983,211.508l-4.019-2.321a.309.309,0,0,0-.464.268V214.1a.309.309,0,0,0,.464.268l4.019-2.321A.309.309,0,0,0,354.983,211.508Z" transform="translate(-350.147 -208.792)" fill="#fff"/>
      <path id="Path_214" data-name="Path 214" d="M350.163,214.113a.665.665,0,0,1-.663-.663v-4.641a.662.662,0,0,1,.994-.574l4.02,2.321a.662.662,0,0,1,0,1.148l-4.02,2.32A.661.661,0,0,1,350.163,214.113Zm.044-5.228v4.488l3.887-2.243Zm3.953,2.282h0Z" transform="translate(-349.5 -208.145)" fill="#cbcbcb"/>
    </g>
    <g id="Group_657" data-name="Group 657" transform="translate(67.399 113.261)">
      <g id="Group_655" data-name="Group 655">
        <g id="Group_650" data-name="Group 650" transform="translate(0.29)">
          <path id="Path_215" data-name="Path 215" d="M155.037,155.2l-26.312-20.032a1.391,1.391,0,0,1,0-1.966l26.288-18.032a1.39,1.39,0,0,1,1.966,0l26.311,18.065a1.39,1.39,0,0,1,0,1.966L157,155.2A1.391,1.391,0,0,1,155.037,155.2Z" transform="translate(-127.789 -114.231)" fill="#dbd7d9"/>
          <path id="Path_216" data-name="Path 216" d="M155.054,155.165h0a1.909,1.909,0,0,1-1.33-.536L127.408,134.6l-.025-.025a1.923,1.923,0,0,1,0-2.716l.075-.062,26.25-18.006a1.905,1.905,0,0,1,1.319-.525h0a1.91,1.91,0,0,1,1.32.526l26.314,18.068.034.035a1.922,1.922,0,0,1,0,2.716l-.054.047-26.26,19.978A1.9,1.9,0,0,1,155.054,155.165ZM128.111,133.8l26.308,20.029.025.025a.855.855,0,0,0,.609.253h0a.852.852,0,0,0,.607-.251l.054-.047,26.254-19.974a.861.861,0,0,0,.006-1.163l-26.306-18.062-.035-.034a.855.855,0,0,0-.608-.253h0a.852.852,0,0,0-.607.251l-.075.062-26.242,18A.862.862,0,0,0,128.111,133.8Z" transform="translate(-126.821 -113.261)" fill="#424242"/>
        </g>
        <g id="Group_651" data-name="Group 651" transform="translate(3.169 5.255)">
          <path id="Path_217" data-name="Path 217" d="M182.006,129.633h-1.088a1.93,1.93,0,0,1,0,1.06,1.943,1.943,0,0,1-3.739,0,1.93,1.93,0,0,1,0-1.06h-5.163a1.93,1.93,0,0,1,0,1.06,1.943,1.943,0,0,1-3.739,0,1.931,1.931,0,0,1,0-1.06h-5.159a1.93,1.93,0,0,1,0,1.06,1.943,1.943,0,0,1-3.739,0,1.931,1.931,0,0,1,0-1.06h-5.163a1.93,1.93,0,0,1,0,1.06,1.943,1.943,0,0,1-3.739,0,1.93,1.93,0,0,1,0-1.06h-5.163a1.93,1.93,0,0,1,0,1.06,1.943,1.943,0,0,1-3.739,0,1.93,1.93,0,0,1,0-1.06h-5.11v49.559h49.559V129.633Z" transform="translate(-135.938 -129.103)" fill="#b1d7c0"/>
          <path id="Path_218" data-name="Path 218" d="M185.057,178.752H135.5a.53.53,0,0,1-.53-.53v-49.56a.53.53,0,0,1,.53-.53h5.11a.53.53,0,0,1,.509.679,1.4,1.4,0,0,0,0,.763,1.413,1.413,0,0,0,2.72,0,1.4,1.4,0,0,0,0-.768.53.53,0,0,1,.509-.679h5.163a.53.53,0,0,1,.509.678,1.4,1.4,0,0,0,0,.764,1.413,1.413,0,0,0,2.719,0,1.4,1.4,0,0,0,0-.768.53.53,0,0,1,.509-.679h5.163a.53.53,0,0,1,.509.678,1.4,1.4,0,0,0,0,.764,1.413,1.413,0,0,0,2.719,0,1.4,1.4,0,0,0,0-.768.53.53,0,0,1,.509-.678h5.159a.531.531,0,0,1,.509.679,1.386,1.386,0,0,0,0,.762,1.413,1.413,0,0,0,2.719.005,1.405,1.405,0,0,0,0-.767.53.53,0,0,1,.508-.679h5.163a.53.53,0,0,1,.509.678,1.4,1.4,0,0,0,0,.764,1.413,1.413,0,0,0,2.72,0,1.395,1.395,0,0,0,0-.768.531.531,0,0,1,.509-.678h5.11a.53.53,0,0,1,.53.53v49.56A.53.53,0,0,1,185.057,178.752Zm-49.029-1.06h48.5v-48.5h-3.975a2.422,2.422,0,0,1-.1.678,2.473,2.473,0,0,1-4.758,0,2.431,2.431,0,0,1-.094-.675H171.65a2.408,2.408,0,0,1-.1.679,2.473,2.473,0,0,1-4.757,0,2.408,2.408,0,0,1-.095-.674h-3.95a2.422,2.422,0,0,1-.1.678,2.473,2.473,0,0,1-4.758,0,2.417,2.417,0,0,1-.094-.675h-3.954a2.424,2.424,0,0,1-.1.679,2.473,2.473,0,0,1-4.758,0,2.43,2.43,0,0,1-.094-.675h-3.954a2.424,2.424,0,0,1-.1.679,2.473,2.473,0,0,1-4.758,0,2.419,2.419,0,0,1-.094-.674h-3.975Z" transform="translate(-134.968 -128.132)" fill="#424242"/>
        </g>
        <g id="Group_652" data-name="Group 652" transform="translate(0.53 19.466)">
          <path id="Path_219" data-name="Path 219" d="M183.332,169.31v38.4a1.415,1.415,0,0,1-1.413,1.413h-53a1.411,1.411,0,0,1-1.413-1.413v-38.4a1.4,1.4,0,0,1,.378-.961,1.392,1.392,0,0,0,.152,1.265v-.3a.888.888,0,0,1,.237-.6c.025-.025.049-.049.074-.071a.886.886,0,0,0-.021.194.844.844,0,0,0,.233.587l24.174,18.4,1.41-1.071a1.928,1.928,0,0,1,2.661,0l1.431,1.092,24.181-18.393a.838.838,0,0,0,.223-.664c.021.028.039.057.057.085a.866.866,0,0,1,.113.435v.5a1.371,1.371,0,0,0,.343-1.2A1.384,1.384,0,0,1,183.332,169.31Z" transform="translate(-127.5 -168.349)" fill="#f2f2f2"/>
        </g>
        <g id="Group_653" data-name="Group 653" transform="translate(0 19.191)">
          <path id="Path_220" data-name="Path 220" d="M182.673,167.908a1.914,1.914,0,0,1-.311,1.583v-.686a1.384,1.384,0,0,0-.187-.7,1.371,1.371,0,0,1-.343,1.2v-.5a.866.866,0,0,0-.113-.435c-.018-.028-.035-.057-.057-.085a.838.838,0,0,1-.223.664l-24.181,18.393-1.431-1.092a1.928,1.928,0,0,0-2.661,0l-1.41,1.071-24.174-18.4a.844.844,0,0,1-.233-.587.885.885,0,0,1,.021-.194c-.025.021-.049.046-.074.071a.888.888,0,0,0-.237.6v.3a1.392,1.392,0,0,1-.152-1.265,1.4,1.4,0,0,0-.378.961v.452a1.925,1.925,0,0,1-.085-1.689,1.925,1.925,0,0,0-.445,1.237v38.4a1.915,1.915,0,0,0,.516,1.318l0,.011.067.067a1.941,1.941,0,0,0,1.357.548h53a1.95,1.95,0,0,0,1.689-.986l.046-.078,0-.011a1.953,1.953,0,0,0,.2-.869v-38.4A1.9,1.9,0,0,0,182.673,167.908ZM127.06,206.1V169.852l23.82,18.135Zm54.772-.067-23.7-18.022,23.7-18.025Z" transform="translate(-126 -167.569)" fill="#424242"/>
        </g>
        <g id="Group_654" data-name="Group 654" transform="translate(22.551 17.424)">
          <path id="Path_221" data-name="Path 221" d="M200.272,163.215l-5.839,5.839a.5.5,0,0,1-.7,0l-1.869-1.862a.5.5,0,0,0-.7,0l-.7.7a.5.5,0,0,0,0,.7l3.269,3.269a.5.5,0,0,0,.7,0l7.241-7.241a.5.5,0,0,0,0-.7l-.7-.705A.5.5,0,0,0,200.272,163.215Z" transform="translate(-190.141 -162.892)" fill="#fff"/>
          <path id="Path_222" data-name="Path 222" d="M193.76,171.861a.669.669,0,0,1-.476-.2l-3.269-3.269a.673.673,0,0,1,0-.952l.7-.7a.674.674,0,0,1,.951,0l1.87,1.862a.319.319,0,0,0,.451,0l5.84-5.839a.669.669,0,0,1,.475-.2h0a.668.668,0,0,1,.476.2l.7.7a.675.675,0,0,1,0,.95l-7.241,7.241A.669.669,0,0,1,193.76,171.861Zm-2.571-4.96a.319.319,0,0,0-.226.093l-.7.7a.32.32,0,0,0,0,.452l3.269,3.269a.328.328,0,0,0,.452,0l7.241-7.241a.32.32,0,0,0,0-.451l-.7-.7a.319.319,0,0,0-.227-.095h0a.318.318,0,0,0-.226.094l-5.84,5.839a.674.674,0,0,1-.951,0l-1.869-1.862A.317.317,0,0,0,191.189,166.9Z" transform="translate(-189.818 -162.569)" fill="#424242"/>
        </g>
      </g>
      <g id="Group_656" data-name="Group 656" transform="translate(0.227 37.568)">
        <path id="Path_223" data-name="Path 223" d="M183.5,242.729a1.416,1.416,0,0,1-1.23.717h-53a1.407,1.407,0,0,1-.986-.4,1.39,1.39,0,0,1,.269-1.583l24.531-18.651,1.756-1.336a1.394,1.394,0,0,1,1.968,0l1.781,1.357L183.112,241.5A1.4,1.4,0,0,1,183.5,242.729Z" transform="translate(-127.611 -220.544)" fill="#fff"/>
        <path id="Path_224" data-name="Path 224" d="M181.3,243.009h-53a1.933,1.933,0,0,1-1.355-.549l-.068-.066-.041-.086a1.925,1.925,0,0,1,.372-2.186l.054-.047,26.261-19.967a1.927,1.927,0,0,1,2.662,0l1.755,1.337,24.56,18.68.026.026a1.934,1.934,0,0,1,.53,1.7l-.016.09-.045.079A1.951,1.951,0,0,1,181.3,243.009Zm-53.549-1.246a.88.88,0,0,0,.544.186h53a.888.888,0,0,0,.719-.372.876.876,0,0,0-.229-.652l-26.307-20.011-.025-.025a.867.867,0,0,0-1.22,0l-.052.046L127.93,240.894A.862.862,0,0,0,127.751,241.763Z" transform="translate(-126.643 -219.577)" fill="#424242"/>
      </g>
    </g>
    <g id="Group_658" data-name="Group 658" transform="translate(51.851 149.856)">
      <path id="Path_225" data-name="Path 225" d="M88.007,219.12h-2.3v-2.3H84.3v2.3H82v1.413h2.3v2.3H85.71v-2.3h2.3Z" transform="translate(-82 -216.823)" fill="#cbcbcb"/>
    </g>
    <g id="Group_659" data-name="Group 659" transform="translate(131.914 150.236)">
      <path id="Path_226" data-name="Path 226" d="M313.823,222.146l-1.624-1.624,1.624-1.624-1-1-1.624,1.624-1.624-1.624-1,1,1.624,1.624-1.624,1.624,1,1,1.624-1.624,1.624,1.624Z" transform="translate(-308.575 -217.898)" fill="#cbcbcb"/>
    </g>
    <g id="Group_660" data-name="Group 660" transform="translate(47.728 159.185)">
      <circle id="Ellipse_47" data-name="Ellipse 47" cx="1.296" cy="1.296" r="1.296" transform="translate(0 0)" fill="#cbcbcb"/>
    </g>
    <g id="Group_661" data-name="Group 661" transform="translate(141.9 159.185)">
      <circle id="Ellipse_48" data-name="Ellipse 48" cx="1.296" cy="1.296" r="1.296" transform="translate(0 0)" fill="#cbcbcb"/>
    </g>
    <g id="Group_662" data-name="Group 662" transform="translate(35.375 143.74)">
      <circle id="Ellipse_49" data-name="Ellipse 49" cx="1.944" cy="1.944" r="1.944" transform="translate(0.353 0.353)" fill="#fff"/>
      <path id="Path_227" data-name="Path 227" d="M37.672,204.109a2.3,2.3,0,1,1,2.3-2.3A2.3,2.3,0,0,1,37.672,204.109Zm0-3.887a1.59,1.59,0,1,0,1.59,1.59A1.592,1.592,0,0,0,37.672,200.222Z" transform="translate(-35.375 -199.515)" fill="#cbcbcb"/>
    </g>
  </g>
</svg>
