<svg id="Group_687" data-name="Group 687" xmlns="http://www.w3.org/2000/svg" width="27.592" height="27.592" viewBox="0 0 27.592 27.592">
  <path id="Path_253" data-name="Path 253" d="M952.6,296.98a3.065,3.065,0,0,1,3.066,3.066v21.46a3.065,3.065,0,0,1-3.066,3.066h-21.46a3.066,3.066,0,0,1-3.066-3.066v-21.46a3.066,3.066,0,0,1,3.066-3.066H952.6" transform="translate(-928.071 -296.98)" fill="#a3a3a3"/>
  <path id="Path_254" data-name="Path 254" d="M947.4,303.382a6.314,6.314,0,0,1-1.8.506,3.153,3.153,0,0,0,1.378-1.744,6.359,6.359,0,0,1-1.993.769,3.1,3.1,0,0,0-2.316-1,3.14,3.14,0,0,0-3.129,3.144,3.222,3.222,0,0,0,.081.717,8.936,8.936,0,0,1-6.478-3.282,3.131,3.131,0,0,0,.975,4.183,3.116,3.116,0,0,1-1.429-.366v.021a3.146,3.146,0,0,0,2.52,3.086,3.1,3.1,0,0,1-1.413.051,3.137,3.137,0,0,0,2.931,2.184A6.251,6.251,0,0,1,932.819,313a6.437,6.437,0,0,1-.748-.043,8.943,8.943,0,0,0,13.768-7.533c0-.139,0-.271-.008-.411A6.262,6.262,0,0,0,947.4,303.382Z" transform="translate(-925.94 -294.349)" fill="#fff"/>
</svg>
